<?xml version="1.0" standalone="no"?>
<!DOCTYPE svg PUBLIC "-//W3C//DTD SVG 1.1//EN" "http://www.w3.org/Graphics/SVG/1.1/DTD/svg11.dtd" >
<svg xmlns="http://www.w3.org/2000/svg" xmlns:xlink="http://www.w3.org/1999/xlink" version="1.1">
<metadata>
Created by FontForge 20201107 at Thu Nov 18 04:23:12 2021
 By Unknown
Jen Wagner LLC 2018
</metadata>
<defs>
<font id="Dallas-Regular" horiz-adv-x="849" >
  <font-face 
    font-family="Dallas"
    font-weight="400"
    font-stretch="normal"
    units-per-em="1000"
    panose-1="0 0 5 0 0 0 0 0 0 0"
    ascent="800"
    descent="-200"
    x-height="629"
    cap-height="629"
    bbox="-698 -300 1524 1000"
    underline-thickness="50"
    underline-position="-100"
    unicode-range="U+0020-25FC"
  />
<missing-glyph horiz-adv-x="650" 
d="M533 -300h-412v1300h412v-1300zM218 913v-43h85v-48h-86v-43h216v43h-86v48h86v43h-215zM217 745v-135h216v44h-86v91h-130zM303 654h-43v47h43v-47zM217 575v-43h86v-48h-86v-43h130v91h86v43h-216zM390 497v-86h-173v-44h216v130h-43zM303 338v-72h44v29h43v-61h-130
v104h-43v-147h216v147h-130zM217 113v-147h216v147h-216zM390 9h-130v62h130v-62zM217 -63v-43h91l-91 -61v-43h216v43h-133l91 61h42v43h-216z" />
    <glyph glyph-name=".notdef" horiz-adv-x="650" 
d="M533 -300h-412v1300h412v-1300zM218 913v-43h85v-48h-86v-43h216v43h-86v48h86v43h-215zM217 745v-135h216v44h-86v91h-130zM303 654h-43v47h43v-47zM217 575v-43h86v-48h-86v-43h130v91h86v43h-216zM390 497v-86h-173v-44h216v130h-43zM303 338v-72h44v29h43v-61h-130
v104h-43v-147h216v147h-130zM217 113v-147h216v147h-216zM390 9h-130v62h130v-62zM217 -63v-43h91l-91 -61v-43h216v43h-133l91 61h42v43h-216z" />
    <glyph glyph-name=".null" horiz-adv-x="0" 
 />
    <glyph glyph-name="nonmarkingreturn" horiz-adv-x="333" 
 />
    <glyph glyph-name="space" unicode=" " horiz-adv-x="450" 
 />
    <glyph glyph-name="exclam" unicode="!" horiz-adv-x="215" 
d="M60 629h96v-456h-96v456zM108 -10q-24 0 -41 17t-17 41q0 23 17 40t41 17q23 0 40 -17t17 -40q0 -24 -17 -41t-40 -17z" />
    <glyph glyph-name="quotedbl" unicode="&#x22;" horiz-adv-x="326" 
d="M60 629h86l-10 -150h-66zM180 629h86l-10 -150h-66z" />
    <glyph glyph-name="numbersign" unicode="#" horiz-adv-x="745" 
d="M175 181h-125l28 84h123l28 90h-122l28 84h120l58 190h101l-59 -190h96l59 190h101l-59 -190h143l-28 -84h-141l-28 -90h140l-28 -84h-138l-55 -181h-101l56 181h-96l-56 -181h-101zM398 265l27 90h-96l-27 -90h96z" />
    <glyph glyph-name="dollar" unicode="$" horiz-adv-x="621" 
d="M268 -6q-62 9 -114 43q-49 32 -76.5 80.5t-27.5 101.5h96q0 -63 61 -102q30 -19 61 -26v204q-103 30 -151 78q-55 55 -44 122q12 75 107 122q43 21 88 25v101h84v-103q54 -9 101 -39q94 -60 94 -158h-96q0 47 -49 77q-21 13 -50 21v-169q12 -2 18 -4q31 -6 53.5 -13.5
t56.5 -23t56.5 -43.5t30.5 -65q14 -65 -20.5 -120.5t-107.5 -85.5q-43 -18 -87 -24v-96h-84v97zM268 545q-56 -7 -85 -38t1 -65q27 -27 84 -46v149zM352 91q26 5 49 15q17 7 33.5 17.5t30 32.5t8.5 47t-33 41.5t-88 29.5v-183z" />
    <glyph glyph-name="percent" unicode="%" horiz-adv-x="560" 
d="M357 629h104l-257 -629h-104zM108 415q-24 0 -41 17t-17 41q0 23 17 40t41 17q23 0 40 -17t17 -40q0 -24 -17 -41t-40 -17zM453 99q-24 0 -41 17t-17 41q0 23 17 40t41 17q23 0 40 -17t17 -40q0 -24 -17 -41t-40 -17z" />
    <glyph glyph-name="ampersand" unicode="&#x26;" horiz-adv-x="782" 
d="M511 79q-52 -44 -102 -64q-57 -23 -122 -24.5t-123.5 23t-87.5 71.5q-30 48 -26 100.5t43 97.5q41 47 115 77q-96 101 -55 186q21 45 74.5 69.5t112 22t98.5 -30.5q66 -51 58 -124.5t-73 -127.5q-21 -15 -37 -25l4 -4q5 -5 14.5 -14t22.5 -21.5t33.5 -31.5t42.5 -41
q17 31 17 58h96q0 -64 -41 -126l157 -150h-139zM307 398q35 16 55 32q27 21 34.5 48t-12.5 49q-17 17 -41 22.5t-45 0.5t-37.5 -17.5t-20.5 -28.5q-9 -37 67 -106zM372 104q32 13 69 41q-118 113 -153 143q-93 -34 -121 -67q-36 -43 -9 -86q24 -38 92.5 -46t121.5 15z" />
    <glyph glyph-name="quotesingle" unicode="'" horiz-adv-x="186" 
d="M50 629h86l-10 -150h-66z" />
    <glyph glyph-name="parenleft" unicode="(" horiz-adv-x="371" 
d="M291 -80q-78 26 -134 90.5t-81.5 144t-25 168.5t26.5 165.5t83.5 133t136.5 71.5l18 -25q-65 -18 -108 -89.5t-53 -166t1.5 -191t56 -174.5t109.5 -106z" />
    <glyph glyph-name="parenright" unicode=")" horiz-adv-x="371" 
d="M50 -59q65 28 109.5 106t56 174.5t1.5 191t-53 166t-108 89.5l18 25q79 -15 136.5 -71.5t83.5 -133t26.5 -165.5t-25 -168.5t-81.5 -144t-134 -90.5z" />
    <glyph glyph-name="asterisk" unicode="*" horiz-adv-x="508" 
d="M221 478v4l-128 -86l-43 75l135 66l3 2l-3 2l-135 66l43 75l128 -86v4l-10 150h86l-10 -150v-4l128 86l43 -75l-135 -66l-3 -2l3 -2l135 -66l-43 -75l-128 86v-4l10 -150h-86z" />
    <glyph glyph-name="plus" unicode="+" horiz-adv-x="519" 
d="M211 246h-161v96h161v161h96v-161h162v-96h-162v-161h-96v161z" />
    <glyph glyph-name="comma" unicode="," horiz-adv-x="217" 
d="M56 -22q30 0 51 22q-23 0 -40 17t-17 40q0 24 17 41t41 17q34 0 49.5 -24.5t8 -58t-33.5 -58.5q-34 -32 -76 -32v36z" />
    <glyph glyph-name="hyphen" unicode="-" horiz-adv-x="420" 
d="M50 342h320v-96h-320v96z" />
    <glyph glyph-name="period" unicode="." horiz-adv-x="215" 
d="M108 -10q-24 0 -41 17t-17 41q0 23 17 40t41 17q23 0 40 -17t17 -40q0 -24 -17 -41t-40 -17z" />
    <glyph glyph-name="slash" unicode="/" horiz-adv-x="461" 
d="M307 629h104l-257 -629h-104z" />
    <glyph glyph-name="zero" unicode="0" horiz-adv-x="627" 
d="M313 -10q-109 0 -186 91t-77 219t77 219t186 91t186.5 -91t77.5 -219t-77.5 -219t-186.5 -91zM313 86q70 0 119 62.5t49 151.5t-49 151.5t-119 62.5q-69 0 -118 -63t-49 -151t49 -151t118 -63z" />
    <glyph glyph-name="one" unicode="1" horiz-adv-x="301" 
d="M155 465q-40 -18 -105 -26v95q105 18 105 66h96v-600h-96v465z" />
    <glyph glyph-name="two" unicode="2" horiz-adv-x="606" 
d="M50 65q0 55 32.5 101t90.5 77l237 129q53 29 50 67q-3 40 -56 61q-36 14 -76 14q-65 0 -112 -33t-47 -79h-96q0 86 74.5 147t180.5 61q61 0 111 -20q51 -20 82 -58t35 -85q4 -48 -23.5 -90t-78.5 -70l-238 -129q-48 -26 -64 -62h402v-96h-504v65z" />
    <glyph glyph-name="three" unicode="3" horiz-adv-x="632" 
d="M447 17q-60 -25 -125 -26.5t-120 18t-96.5 62t-55.5 99.5l93 26q9 -48 56 -79q37 -24 90 -29.5t98 6t74 41t23 68.5q-11 66 -136 68l-59 1l1 96q47 0 67 2q42 2 68.5 20t29.5 50q-3 36 -42 55.5t-90 19.5q-57 0 -101.5 -26.5t-55.5 -64.5l-92 27q20 69 89.5 114.5
t159.5 45.5t155.5 -43t72.5 -119q6 -69 -50 -119q62 -37 77 -107q14 -62 -22 -118.5t-109 -87.5z" />
    <glyph glyph-name="four" unicode="4" horiz-adv-x="649" 
d="M396 138h-346v98l336 364h106v-366h107v-96h-107v-138h-96v138zM396 234v254l-232 -254h232z" />
    <glyph glyph-name="five" unicode="5" horiz-adv-x="632" 
d="M313 -10q-97 0 -167 47q-77 52 -96 135l93 26q9 -50 56 -80q43 -27 100 -30.5t110 18.5q60 25 74 76t-27 89q-35 32 -93.5 42t-115.5 -8q-53 -17 -76 -40l-17 -17h-83l37 352h412v-96h-325l-14 -121q7 3 20 7.5t18 6.5q81 25 164 9.5t137 -64.5q53 -49 61 -114.5
t-28.5 -123.5t-105.5 -87q-65 -27 -134 -27z" />
    <glyph glyph-name="six" unicode="6" horiz-adv-x="648" 
d="M463 17q-72 -31 -155.5 -26t-145.5 46q-54 36 -83.5 101t-30 134.5t15.5 140.5q46 179 231 198q86 9 168 -24t103 -93l-93 -27q-13 25 -68.5 43t-99.5 13q-135 -14 -157 -176q79 67 198 63.5t190 -68.5q40 -36 54 -84t3.5 -93.5t-45 -85.5t-85.5 -62zM425 106
q60 25 74 76t-27 89q-44 41 -117.5 46.5t-131 -27.5t-57.5 -90q0 -36 26 -63t64.5 -38.5t84.5 -10t84 17.5z" />
    <glyph glyph-name="seven" unicode="7" horiz-adv-x="600" 
d="M123 0q15 91 68.5 194.5t106 173.5t112.5 136h-385v96h518v-96q-32 -32 -72 -77t-97 -117.5t-100.5 -155.5t-56.5 -154h-94z" />
    <glyph glyph-name="eight" unicode="8" horiz-adv-x="623" 
d="M312 -10q-122 0 -192 55.5t-70 129.5q0 37 24 76t68 68q-63 46 -63 123q0 76 69 121.5t166 45.5q94 0 162.5 -46.5t68.5 -120.5q0 -70 -61 -121q44 -28 66.5 -68t22.5 -78q0 -72 -70.5 -128.5t-190.5 -56.5zM311 368q51 0 94.5 18t43.5 56q0 31 -43 51t-92 20
q-62 0 -100.5 -20.5t-38.5 -50.5q0 -27 24 -45t53 -24t57 -5h2zM312 86q77 0 121 28.5t44 60.5q0 11 -7.5 25t-24 30.5t-51.5 27.5t-82 11q-78 0 -122 -32.5t-44 -61.5q0 -42 53 -65.5t113 -23.5z" />
    <glyph glyph-name="nine" unicode="9" horiz-adv-x="650" 
d="M353 -8q-86 -9 -168 24t-103 93l93 27q13 -25 68.5 -43t99.5 -13q135 14 157 176q-79 -67 -198 -63.5t-190 68.5q-40 36 -54 84t-3.5 93.5t45 85.5t85.5 62q72 31 155.5 26t145.5 -46q54 -36 83.5 -101t30 -134.5t-15.5 -140.5q-46 -179 -231 -198zM176 332
q44 -41 117.5 -46.5t131 27.5t57.5 90q0 36 -26 63t-64.5 38.5t-84.5 10t-84 -17.5q-60 -25 -74 -76t27 -89z" />
    <glyph glyph-name="colon" unicode=":" horiz-adv-x="215" 
d="M108 303q-24 0 -41 17t-17 41q0 23 17 40t41 17q23 0 40 -17t17 -40q0 -24 -17 -41t-40 -17zM108 -10q-24 0 -41 17t-17 41q0 23 17 40t41 17q23 0 40 -17t17 -40q0 -24 -17 -41t-40 -17z" />
    <glyph glyph-name="semicolon" unicode=";" horiz-adv-x="217" 
d="M108 303q-24 0 -41 17t-17 41q0 23 17 40t41 17q23 0 40 -17t17 -40q0 -24 -17 -41t-40 -17zM56 -22q30 0 51 22q-23 0 -40 17t-17 40q0 24 17 41t41 17q34 0 49.5 -24.5t8 -58t-33.5 -58.5q-34 -32 -76 -32v36z" />
    <glyph glyph-name="less" unicode="&#x3c;" horiz-adv-x="543" 
d="M50 221v78l443 222v-106l-309 -155l309 -154v-107z" />
    <glyph glyph-name="equal" unicode="=" horiz-adv-x="580" 
d="M50 438h480v-96h-480v96zM50 249h480v-96h-480v96z" />
    <glyph glyph-name="greater" unicode="&#x3e;" horiz-adv-x="543" 
d="M50 106l309 154l-309 155v106l443 -222v-78l-443 -222v107z" />
    <glyph glyph-name="question" unicode="?" horiz-adv-x="552" 
d="M216 173q0 66 27 113.5t88 90.5l5 4q49 35 61 51t6 38q-11 40 -59.5 60.5t-105.5 8.5q-47 -10 -69.5 -40.5t-22.5 -67.5h-96q0 69 43.5 127.5t125.5 74.5q94 19 174 -20.5t102 -115.5q6 -21 6.5 -40.5t-3.5 -35t-13 -30.5t-18 -26t-23.5 -23.5t-25.5 -20.5t-26 -18l-6 -4
q-44 -30 -59 -58t-15 -68h-96zM264 -10q-23 0 -40 17t-17 40q0 24 17 41t40 17q24 0 41 -17t17 -41q0 -23 -17 -40t-41 -17z" />
    <glyph glyph-name="at" unicode="@" horiz-adv-x="758" 
d="M399 -16q-144 0 -246.5 97t-102.5 233t102.5 232.5t246.5 96.5t233.5 -87t73.5 -224q-13 -111 -91 -165q-59 -41 -114 -28q-35 8 -54 36l-5 -3q-43 -32 -91 -32q-16 0 -36 5q-66 17 -97 88q-27 61 -7 138q19 72 77 116q59 44 128 26q41 -10 71 -47l8 27l78 -22l-64 -223
q-3 -31 14 -31q22 0 45 16q49 35 58 108q5 41 -4.5 78t-18.5 50.5t-16 20.5q-79 73 -188 73q-111 0 -189.5 -73t-78.5 -176t78.5 -176t189.5 -73q120 0 202 85l55 -59q-105 -107 -257 -107zM336 223q29 -8 59 14q35 25 47 71q11 44 -5 85q-14 36 -43 42q-8 2 -15 2
q-22 0 -44 -16q-35 -26 -47 -71q-12 -48 5 -86q15 -34 43 -41z" />
    <glyph glyph-name="A" unicode="A" horiz-adv-x="835" 
d="M356 629h123l306 -629h-120l-71 146h-353l-71 -146h-120zM541 254l-124 255l-123 -255h247z" />
    <glyph glyph-name="B" unicode="B" horiz-adv-x="689" 
d="M50 629h340q92 0 157.5 -54t65.5 -130q0 -68 -54 -119q80 -56 80 -141q0 -76 -66 -130.5t-159 -54.5h-364v629zM390 369q47 0 81 22.5t34 53.5t-34 53.5t-81 22.5h-232v-152h232zM414 108q48 0 82.5 22.5t34.5 54.5q0 31 -34.5 53.5t-82.5 22.5h-256v-153h256z" />
    <glyph glyph-name="C" unicode="C" horiz-adv-x="775" 
d="M416 -10q-151 0 -258.5 95.5t-107.5 229.5t107.5 229.5t258.5 95.5q95 0 177 -40.5t132 -111.5l-88 -62q-35 50 -94 78t-127 28q-106 0 -181.5 -64t-75.5 -153q0 -90 75 -153.5t182 -63.5q68 0 127 28t94 78l88 -63q-50 -71 -132.5 -111t-176.5 -40z" />
    <glyph glyph-name="D" unicode="D" horiz-adv-x="745" 
d="M50 629h281q160 0 262 -90.5t102 -223.5q0 -132 -102 -223.5t-262 -91.5h-281v629zM331 108q116 0 186 59.5t70 147.5t-70 147t-186 59h-173v-413h173z" />
    <glyph glyph-name="E" unicode="E" horiz-adv-x="668" 
d="M50 629h568v-108h-460v-151h436v-108h-436v-154h460v-108h-568v629z" />
    <glyph glyph-name="F" unicode="F" horiz-adv-x="645" 
d="M50 629h545v-108h-437v-150h413v-108h-413v-263h-108v629z" />
    <glyph glyph-name="G" unicode="G" horiz-adv-x="798" 
d="M415 -11q-151 0 -258 95.5t-107 229.5t107 229.5t258 95.5q95 0 177 -40.5t132 -111.5l-88 -62q-35 50 -93.5 78t-127.5 28q-106 0 -181.5 -64t-75.5 -153q0 -90 75 -153.5t182 -63.5q41 0 82 11q56 15 94 52t46 83l2 19h-224v108h333v-370h-108v61q-50 -39 -114 -57
q-52 -15 -111 -15z" />
    <glyph glyph-name="H" unicode="H" horiz-adv-x="732" 
d="M50 629h108v-258h415v258h108v-629h-108v263h-415v-263h-108v629z" />
    <glyph glyph-name="I" unicode="I" horiz-adv-x="208" 
d="M50 629h108v-629h-108v629z" />
    <glyph glyph-name="J" unicode="J" horiz-adv-x="592" 
d="M306 -13q-112 0 -184 56t-72 137h108q0 -36 41 -60.5t107 -24.5q52 0 90 25.5t38 59.5v449h108v-449q0 -80 -69 -136.5t-167 -56.5z" />
    <glyph glyph-name="K" unicode="K" horiz-adv-x="711" 
d="M50 629h108v-303l318 303h157l-316 -300l344 -329h-157l-265 254l-81 -77v-177h-108v629z" />
    <glyph glyph-name="L" unicode="L" horiz-adv-x="668" 
d="M50 629h108v-521h460v-108h-568v629z" />
    <glyph glyph-name="M" unicode="M" horiz-adv-x="863" 
d="M50 629h102l280 -466l279 466h102v-629h-108v410l-245 -410h-56l-246 410v-410h-108v629z" />
    <glyph glyph-name="N" unicode="N" horiz-adv-x="730" 
d="M50 629h104l418 -465v465h108v-629h-105l-417 464v-464h-108v629z" />
    <glyph glyph-name="O" unicode="O" 
d="M424 -10q-155 0 -264.5 95.5t-109.5 230.5t110 231t264 96q155 0 265 -96t110 -231t-110 -230.5t-265 -95.5zM424 98q110 0 188.5 64t78.5 154q0 91 -78.5 155t-188.5 64t-188 -64t-78 -155q0 -90 78 -154t188 -64z" />
    <glyph glyph-name="P" unicode="P" horiz-adv-x="663" 
d="M50 631h340q92 0 157.5 -54t65.5 -130t-65.5 -129.5t-157.5 -53.5h-232v-264h-108v631zM390 372q47 0 81 22t34 53t-34 53.5t-81 22.5h-232v-151h232z" />
    <glyph glyph-name="Q" unicode="Q" 
d="M625 41q-92 -51 -200 -51q-155 0 -265 95.5t-110 230.5t110 231t265 96q154 0 264 -96t110 -231q0 -116 -83 -205l74 -47l-58 -91zM425 98q44 0 91 13l-48 30l59 91l96 -61q68 62 68 145q0 91 -78 155t-188 64t-188.5 -64t-78.5 -155q0 -90 78.5 -154t188.5 -64z" />
    <glyph glyph-name="R" unicode="R" horiz-adv-x="720" 
d="M50 629h340q92 0 157.5 -54t65.5 -130q0 -67 -52 -117.5t-130 -62.5l239 -265h-145l-237 262h-130v-262h-108v629zM390 370q47 0 81 22t34 53t-34 53.5t-81 22.5h-232v-151h232z" />
    <glyph glyph-name="S" unicode="S" horiz-adv-x="689" 
d="M484 14q-82 -29 -176 -20t-163 56q-95 65 -95 158h108q0 -35 48 -69q42 -29 105 -36t134 12q53 16 69.5 48.5t-13 63.5t-96.5 41q-149 22 -202.5 39t-87.5 55q-56 63 -38.5 136t93.5 114q79 42 181.5 40.5t180.5 -46.5q99 -57 99 -160h-108q0 32 -46 67q-65 49 -170 35
q-84 -12 -116 -51q-24 -32 4 -63q19 -21 61 -31.5t165 -27.5q94 -13 152 -60.5t67.5 -104t-30.5 -112.5t-126 -84z" />
    <glyph glyph-name="T" unicode="T" horiz-adv-x="721" 
d="M306 521h-256v108h621v-108h-257v-521h-108v521z" />
    <glyph glyph-name="U" unicode="U" horiz-adv-x="735" 
d="M367 -10q-131 0 -224 75t-93 181v383h108v-383q0 -60 62 -104t147 -44t147.5 44t62.5 104v383h108v-383q0 -106 -93 -181t-225 -75z" />
    <glyph glyph-name="V" unicode="V" horiz-adv-x="812" 
d="M50 629h120l236 -486l236 486h120l-306 -629h-100z" />
    <glyph glyph-name="W" unicode="W" horiz-adv-x="1129" 
d="M280 1l-230 628h115l168 -457l180 457h103l180 -457l168 457h115l-231 -628l-2 -1h-99l-183 465l-183 -465h-99z" />
    <glyph glyph-name="X" unicode="X" horiz-adv-x="842" 
d="M347 317l-292 312h148l218 -233l218 233h148l-292 -312l297 -317h-148l-223 238l-223 -238h-148z" />
    <glyph glyph-name="Y" unicode="Y" horiz-adv-x="832" 
d="M364 294l-314 335h148l219 -234l218 234h147l-310 -335v-294h-108v294z" />
    <glyph glyph-name="Z" unicode="Z" horiz-adv-x="689" 
d="M50 104l425 417h-401v108h560v-108l-419 -413h424v-108h-589v104z" />
    <glyph glyph-name="bracketleft" unicode="[" horiz-adv-x="312" 
d="M50 698h211v-56h-115v-666h116v-56h-212v778z" />
    <glyph glyph-name="backslash" unicode="\" horiz-adv-x="461" 
d="M50 629h104l257 -629h-104z" />
    <glyph glyph-name="bracketright" unicode="]" horiz-adv-x="312" 
d="M50 -24h116v666h-115v56h211v-778h-212v56z" />
    <glyph glyph-name="asciicircum" unicode="^" horiz-adv-x="622" 
d="M272 629h78l222 -243h-107l-154 169l-155 -169h-106z" />
    <glyph glyph-name="underscore" unicode="_" horiz-adv-x="620" 
d="M50 -3h520v-96h-520v96z" />
    <glyph glyph-name="grave" unicode="`" horiz-adv-x="358" 
d="M50 895h136l122 -174h-105z" />
    <glyph glyph-name="a" unicode="a" horiz-adv-x="835" 
d="M356 629h123l306 -629h-120l-71 146h-353l-71 -146h-120zM541 254l-124 255l-123 -255h247z" />
    <glyph glyph-name="b" unicode="b" horiz-adv-x="689" 
d="M50 629h340q92 0 157.5 -54t65.5 -130q0 -68 -54 -119q80 -56 80 -141q0 -76 -66 -130.5t-159 -54.5h-364v629zM390 369q47 0 81 22.5t34 53.5t-34 53.5t-81 22.5h-232v-152h232zM414 108q48 0 82.5 22.5t34.5 54.5q0 31 -34.5 53.5t-82.5 22.5h-256v-153h256z" />
    <glyph glyph-name="c" unicode="c" horiz-adv-x="775" 
d="M416 -10q-151 0 -258.5 95.5t-107.5 229.5t107.5 229.5t258.5 95.5q95 0 177 -40.5t132 -111.5l-88 -62q-35 50 -94 78t-127 28q-106 0 -181.5 -64t-75.5 -153q0 -90 75 -153.5t182 -63.5q68 0 127 28t94 78l88 -63q-50 -71 -132.5 -111t-176.5 -40z" />
    <glyph glyph-name="d" unicode="d" horiz-adv-x="745" 
d="M50 629h281q160 0 262 -90.5t102 -223.5q0 -132 -102 -223.5t-262 -91.5h-281v629zM331 108q116 0 186 59.5t70 147.5t-70 147t-186 59h-173v-413h173z" />
    <glyph glyph-name="e" unicode="e" horiz-adv-x="668" 
d="M50 629h568v-108h-460v-151h436v-108h-436v-154h460v-108h-568v629z" />
    <glyph glyph-name="f" unicode="f" horiz-adv-x="645" 
d="M50 629h545v-108h-437v-150h413v-108h-413v-263h-108v629z" />
    <glyph glyph-name="g" unicode="g" horiz-adv-x="798" 
d="M415 -11q-151 0 -258 95.5t-107 229.5t107 229.5t258 95.5q95 0 177 -40.5t132 -111.5l-88 -62q-35 50 -93.5 78t-127.5 28q-106 0 -181.5 -64t-75.5 -153q0 -90 75 -153.5t182 -63.5q41 0 82 11q56 15 94 52t46 83l2 19h-224v108h333v-370h-108v61q-50 -39 -114 -57
q-52 -15 -111 -15z" />
    <glyph glyph-name="h" unicode="h" horiz-adv-x="732" 
d="M50 629h108v-258h415v258h108v-629h-108v263h-415v-263h-108v629z" />
    <glyph glyph-name="i" unicode="i" horiz-adv-x="208" 
d="M50 629h108v-629h-108v629z" />
    <glyph glyph-name="j" unicode="j" horiz-adv-x="592" 
d="M306 -13q-112 0 -184 56t-72 137h108q0 -36 41 -60.5t107 -24.5q52 0 90 25.5t38 59.5v449h108v-449q0 -80 -69 -136.5t-167 -56.5z" />
    <glyph glyph-name="k" unicode="k" horiz-adv-x="711" 
d="M50 629h108v-303l318 303h157l-316 -300l344 -329h-157l-265 254l-81 -77v-177h-108v629z" />
    <glyph glyph-name="l" unicode="l" horiz-adv-x="668" 
d="M50 629h108v-521h460v-108h-568v629z" />
    <glyph glyph-name="m" unicode="m" horiz-adv-x="863" 
d="M50 629h102l280 -466l279 466h102v-629h-108v410l-245 -410h-56l-246 410v-410h-108v629z" />
    <glyph glyph-name="n" unicode="n" horiz-adv-x="730" 
d="M50 629h104l418 -465v465h108v-629h-105l-417 464v-464h-108v629z" />
    <glyph glyph-name="o" unicode="o" 
d="M424 -10q-155 0 -264.5 95.5t-109.5 230.5t110 231t264 96q155 0 265 -96t110 -231t-110 -230.5t-265 -95.5zM424 98q110 0 188.5 64t78.5 154q0 91 -78.5 155t-188.5 64t-188 -64t-78 -155q0 -90 78 -154t188 -64z" />
    <glyph glyph-name="p" unicode="p" horiz-adv-x="663" 
d="M50 631h340q92 0 157.5 -54t65.5 -130t-65.5 -129.5t-157.5 -53.5h-232v-264h-108v631zM390 372q47 0 81 22t34 53t-34 53.5t-81 22.5h-232v-151h232z" />
    <glyph glyph-name="q" unicode="q" 
d="M625 41q-92 -51 -200 -51q-155 0 -265 95.5t-110 230.5t110 231t265 96q154 0 264 -96t110 -231q0 -116 -83 -205l74 -47l-58 -91zM425 98q44 0 91 13l-48 30l59 91l96 -61q68 62 68 145q0 91 -78 155t-188 64t-188.5 -64t-78.5 -155q0 -90 78.5 -154t188.5 -64z" />
    <glyph glyph-name="r" unicode="r" horiz-adv-x="720" 
d="M50 629h340q92 0 157.5 -54t65.5 -130q0 -67 -52 -117.5t-130 -62.5l239 -265h-145l-237 262h-130v-262h-108v629zM390 370q47 0 81 22t34 53t-34 53.5t-81 22.5h-232v-151h232z" />
    <glyph glyph-name="s" unicode="s" horiz-adv-x="689" 
d="M484 14q-82 -29 -176 -20t-163 56q-95 65 -95 158h108q0 -35 48 -69q42 -29 105 -36t134 12q53 16 69.5 48.5t-13 63.5t-96.5 41q-149 22 -202.5 39t-87.5 55q-56 63 -38.5 136t93.5 114q79 42 181.5 40.5t180.5 -46.5q99 -57 99 -160h-108q0 32 -46 67q-65 49 -170 35
q-84 -12 -116 -51q-24 -32 4 -63q19 -21 61 -31.5t165 -27.5q94 -13 152 -60.5t67.5 -104t-30.5 -112.5t-126 -84z" />
    <glyph glyph-name="t" unicode="t" horiz-adv-x="721" 
d="M306 521h-256v108h621v-108h-257v-521h-108v521z" />
    <glyph glyph-name="u" unicode="u" horiz-adv-x="735" 
d="M367 -10q-131 0 -224 75t-93 181v383h108v-383q0 -60 62 -104t147 -44t147.5 44t62.5 104v383h108v-383q0 -106 -93 -181t-225 -75z" />
    <glyph glyph-name="v" unicode="v" horiz-adv-x="812" 
d="M50 629h120l236 -486l236 486h120l-306 -629h-100z" />
    <glyph glyph-name="w" unicode="w" horiz-adv-x="1129" 
d="M280 1l-230 628h115l168 -457l180 457h103l180 -457l168 457h115l-231 -628l-2 -1h-99l-183 465l-183 -465h-99z" />
    <glyph glyph-name="x" unicode="x" horiz-adv-x="842" 
d="M347 317l-292 312h148l218 -233l218 233h148l-292 -312l297 -317h-148l-223 238l-223 -238h-148z" />
    <glyph glyph-name="y" unicode="y" horiz-adv-x="832" 
d="M364 294l-314 335h148l219 -234l218 234h147l-310 -335v-294h-108v294z" />
    <glyph glyph-name="z" unicode="z" horiz-adv-x="689" 
d="M50 104l425 417h-401v108h560v-108l-419 -413h424v-108h-589v104z" />
    <glyph glyph-name="exclamdown" unicode="&#xa1;" horiz-adv-x="215" 
d="M108 514q-24 0 -41 17t-17 40q0 24 17 41t41 17q23 0 40 -17t17 -41q0 -23 -17 -40t-40 -17zM60 446h96v-456h-96v456z" />
    <glyph glyph-name="sterling" unicode="&#xa3;" horiz-adv-x="570" 
d="M50 86q0 22 21 84.5t24 77.5h-43v96h50q-2 46 -14 92q-16 66 25 124q27 37 76.5 58t102.5 21q87 0 147.5 -35.5t80.5 -95.5l-90 -38q-9 49 -77 66.5t-127 -6.5q-36 -14 -43 -39.5t5 -61.5q6 -26 11 -85h190v-96h-197q-15 -80 -41 -152h360v-96h-461v86z" />
    <glyph glyph-name="yen" unicode="&#xa5;" horiz-adv-x="832" 
d="M364 119h-116v60h116v34h-116v60h116v21l-314 335h148l219 -234l218 234h147l-310 -335v-21h113v-60h-113v-34h113v-60h-113v-119h-108v119z" />
    <glyph glyph-name="dieresis" unicode="&#xa8;" horiz-adv-x="471" 
d="M123 726q-30 0 -51.5 21.5t-21.5 51.5t21.5 51t51.5 21t51.5 -21t21.5 -51t-21.5 -51.5t-51.5 -21.5zM348 726q-30 0 -51.5 21.5t-21.5 51.5t21.5 51t51.5 21t51.5 -21t21.5 -51t-21.5 -51.5t-51.5 -21.5z" />
    <glyph glyph-name="guillemotleft" unicode="&#xab;" horiz-adv-x="846" 
d="M50 221v78l443 222v-106l-309 -155l309 -154v-107zM353 221v78l443 222v-106l-309 -155l309 -154v-107z" />
    <glyph glyph-name="macron" unicode="&#xaf;" horiz-adv-x="443" 
d="M50 814h343v-72h-343v72z" />
    <glyph glyph-name="acute" unicode="&#xb4;" horiz-adv-x="358" 
d="M172 895h136l-153 -174h-105z" />
    <glyph glyph-name="periodcentered" unicode="&#xb7;" horiz-adv-x="215" 
d="M108 220q-24 0 -41 17t-17 41q0 23 17 40t41 17q23 0 40 -17t17 -40q0 -24 -17 -41t-40 -17z" />
    <glyph glyph-name="cedilla" unicode="&#xb8;" horiz-adv-x="336" 
d="M161 -294q-50 0 -111 23l23 66q56 -21 93.5 -19t47.5 26q6 12 3.5 27.5t-12.5 21.5q-8 5 -15.5 6t-15.5 -2.5t-13.5 -7t-15 -10.5t-16.5 -11l-45 28l60 146h75l-31 -77q23 3 49 -10q33 -16 44.5 -58t-3.5 -80q-28 -69 -117 -69z" />
    <glyph glyph-name="guillemotright" unicode="&#xbb;" horiz-adv-x="846" 
d="M50 106l309 154l-309 155v106l443 -222v-78l-443 -222v107zM353 106l309 154l-309 155v106l443 -222v-78l-443 -222v107z" />
    <glyph glyph-name="questiondown" unicode="&#xbf;" horiz-adv-x="552" 
d="M288 524q-24 0 -41 17t-17 41q0 23 17 40t41 17q23 0 40 -17t17 -40q0 -24 -17 -41t-40 -17zM333 -4q-94 -19 -174 20.5t-102 115.5q-6 21 -6.5 40.5t3.5 35t13 30.5t18 26t23.5 23.5t25.5 20.5t26 18l6 4q44 30 59 58t15 68h96q0 -66 -27 -113.5t-88 -90.5l-5 -4
q-49 -35 -61 -51t-6 -38q11 -40 59.5 -60.5t105.5 -8.5q47 10 69.5 40.5t22.5 67.5h96q0 -69 -43.5 -127.5t-125.5 -74.5z" />
    <glyph glyph-name="Agrave" unicode="&#xc0;" horiz-adv-x="835" 
d="M289 895h136l122 -174h-105zM356 629h123l306 -629h-120l-71 146h-353l-71 -146h-120zM541 254l-124 255l-123 -255h247z" />
    <glyph glyph-name="Aacute" unicode="&#xc1;" horiz-adv-x="835" 
d="M411 895h136l-153 -174h-105zM356 629h123l306 -629h-120l-71 146h-353l-71 -146h-120zM541 254l-124 255l-123 -255h247z" />
    <glyph glyph-name="Acircumflex" unicode="&#xc2;" horiz-adv-x="835" 
d="M386 888h69l166 -151h-100l-101 67l-105 -67h-101zM356 629h123l306 -629h-120l-71 146h-353l-71 -146h-120zM541 254l-124 255l-123 -255h247z" />
    <glyph glyph-name="Atilde" unicode="&#xc3;" horiz-adv-x="835" 
d="M464 746q-32 0 -71 29q-20 16 -36 8q-7 -4 -7.5 -9.5t3.5 -22.5h-76q-7 31 5.5 58t39.5 42q57 29 117 -15q19 -14 25 -14q13 0 15 2.5t7 24.5h74q3 -42 -25.5 -72.5t-70.5 -30.5zM356 629h123l306 -629h-120l-71 146h-353l-71 -146h-120zM541 254l-124 255l-123 -255h247
z" />
    <glyph glyph-name="Adieresis" unicode="&#xc4;" horiz-adv-x="835" 
d="M305 726q-30 0 -51.5 21.5t-21.5 51.5t21.5 51t51.5 21t51.5 -21t21.5 -51t-21.5 -51.5t-51.5 -21.5zM530 726q-30 0 -51.5 21.5t-21.5 51.5t21.5 51t51.5 21t51.5 -21t21.5 -51t-21.5 -51.5t-51.5 -21.5zM356 629h123l306 -629h-120l-71 146h-353l-71 -146h-120z
M541 254l-124 255l-123 -255h247z" />
    <glyph glyph-name="Aring" unicode="&#xc5;" horiz-adv-x="835" 
d="M785 0h-120l-71 146h-353l-71 -146h-120l306 628q-57 39 -57 108q0 52 34.5 89.5t83.5 37.5q50 0 84.5 -37t34.5 -90q0 -72 -56 -108zM417 791q-19 0 -32.5 -16.5t-13.5 -38.5t13.5 -38.5t32.5 -16.5t33 16t14 39q0 24 -13.5 39.5t-33.5 15.5zM541 254l-124 255
l-123 -255h247z" />
    <glyph glyph-name="AE" unicode="&#xc6;" horiz-adv-x="1166" 
d="M548 629h568v-108h-460v-151h436v-108h-436v-154h460v-108h-568v146h-263l-115 -146h-120zM548 254v224l-176 -224h176z" />
    <glyph glyph-name="Ccedilla" unicode="&#xc7;" horiz-adv-x="775" 
d="M416 98q68 0 127 28t94 78l88 -63q-48 -67 -125 -106.5t-166 -44.5l-27 -67q23 3 49 -10q33 -16 44.5 -58t-3.5 -80q-28 -69 -117 -69q-50 0 -111 23l23 66q56 -21 93.5 -19t47.5 26q6 12 3.5 27.5t-12.5 21.5q-8 5 -15.5 6t-15.5 -2.5t-13.5 -7t-15 -10.5t-16.5 -11
l-45 28l57 140q-132 18 -221 109t-89 212q0 134 107.5 229.5t258.5 95.5q95 0 177 -40.5t132 -111.5l-88 -62q-35 50 -94 78t-127 28q-106 0 -181.5 -64t-75.5 -153q0 -90 75 -153.5t182 -63.5z" />
    <glyph glyph-name="Egrave" unicode="&#xc8;" horiz-adv-x="668" 
d="M205 895h136l122 -174h-105zM50 629h568v-108h-460v-151h436v-108h-436v-154h460v-108h-568v629z" />
    <glyph glyph-name="Eacute" unicode="&#xc9;" horiz-adv-x="668" 
d="M327 895h136l-153 -174h-105zM50 629h568v-108h-460v-151h436v-108h-436v-154h460v-108h-568v629z" />
    <glyph glyph-name="Ecircumflex" unicode="&#xca;" horiz-adv-x="668" 
d="M303 888h69l166 -151h-100l-101 67l-105 -67h-101zM50 629h568v-108h-460v-151h436v-108h-436v-154h460v-108h-568v629z" />
    <glyph glyph-name="Edieresis" unicode="&#xcb;" horiz-adv-x="668" 
d="M222 726q-30 0 -51.5 21.5t-21.5 51.5t21.5 51t51.5 21t51.5 -21t21.5 -51t-21.5 -51.5t-51.5 -21.5zM447 726q-30 0 -51.5 21.5t-21.5 51.5t21.5 51t51.5 21t51.5 -21t21.5 -51t-21.5 -51.5t-51.5 -21.5zM50 629h568v-108h-460v-151h436v-108h-436v-154h460v-108h-568
v629z" />
    <glyph glyph-name="Igrave" unicode="&#xcc;" horiz-adv-x="220" 
d="M84 895h136l-153 -174h-105zM50 629h108v-629h-108v629z" />
    <glyph glyph-name="Iacute" unicode="&#xcd;" horiz-adv-x="220" 
d="M84 895h136l-153 -174h-105zM50 629h108v-629h-108v629z" />
    <glyph glyph-name="Icircumflex" unicode="&#xce;" horiz-adv-x="203" 
d="M70 888h69l166 -151h-100l-101 67l-105 -67h-101zM50 629h108v-629h-108v629z" />
    <glyph glyph-name="Idieresis" unicode="&#xcf;" horiz-adv-x="213" 
d="M-6 726q-30 0 -51.5 21.5t-21.5 51.5t21.5 51t51.5 21t51.5 -21t21.5 -51t-21.5 -51.5t-51.5 -21.5zM219 726q-30 0 -51.5 21.5t-21.5 51.5t21.5 51t51.5 21t51.5 -21t21.5 -51t-21.5 -51.5t-51.5 -21.5zM50 629h108v-629h-108v629z" />
    <glyph glyph-name="Eth" unicode="&#xd0;" horiz-adv-x="745" 
d="M331 629q160 0 262 -90.5t102 -223.5q0 -132 -102 -223.5t-262 -91.5h-281v287h-177v72h177v270h281zM331 108q116 0 186 59.5t70 147.5t-70 147t-186 59h-173v-162h188v-72h-188v-179h173z" />
    <glyph glyph-name="Ntilde" unicode="&#xd1;" horiz-adv-x="730" 
d="M411 746q-32 0 -71 29q-20 16 -36 8q-7 -4 -7.5 -9.5t3.5 -22.5h-76q-7 31 5.5 58t39.5 42q57 29 117 -15q19 -14 25 -14q13 0 15 2.5t7 24.5h74q3 -42 -25.5 -72.5t-70.5 -30.5zM50 629h104l418 -465v465h108v-629h-105l-417 464v-464h-108v629z" />
    <glyph glyph-name="Ograve" unicode="&#xd2;" 
d="M296 895h136l122 -174h-105zM424 -10q-155 0 -264.5 95.5t-109.5 230.5t110 231t264 96q155 0 265 -96t110 -231t-110 -230.5t-265 -95.5zM424 98q110 0 188.5 64t78.5 154q0 91 -78.5 155t-188.5 64t-188 -64t-78 -155q0 -90 78 -154t188 -64z" />
    <glyph glyph-name="Oacute" unicode="&#xd3;" 
d="M418 895h136l-153 -174h-105zM424 -10q-155 0 -264.5 95.5t-109.5 230.5t110 231t264 96q155 0 265 -96t110 -231t-110 -230.5t-265 -95.5zM424 98q110 0 188.5 64t78.5 154q0 91 -78.5 155t-188.5 64t-188 -64t-78 -155q0 -90 78 -154t188 -64z" />
    <glyph glyph-name="Ocircumflex" unicode="&#xd4;" 
d="M393 888h69l166 -151h-100l-101 67l-105 -67h-101zM424 -10q-155 0 -264.5 95.5t-109.5 230.5t110 231t264 96q155 0 265 -96t110 -231t-110 -230.5t-265 -95.5zM424 98q110 0 188.5 64t78.5 154q0 91 -78.5 155t-188.5 64t-188 -64t-78 -155q0 -90 78 -154t188 -64z" />
    <glyph glyph-name="Otilde" unicode="&#xd5;" 
d="M471 746q-32 0 -71 29q-20 16 -36 8q-7 -4 -7.5 -9.5t3.5 -22.5h-76q-7 31 5.5 58t39.5 42q57 29 117 -15q19 -14 25 -14q13 0 15 2.5t7 24.5h74q3 -42 -25.5 -72.5t-70.5 -30.5zM424 -10q-155 0 -264.5 95.5t-109.5 230.5t110 231t264 96q155 0 265 -96t110 -231
t-110 -230.5t-265 -95.5zM424 98q110 0 188.5 64t78.5 154q0 91 -78.5 155t-188.5 64t-188 -64t-78 -155q0 -90 78 -154t188 -64z" />
    <glyph glyph-name="Odieresis" unicode="&#xd6;" 
d="M312 726q-30 0 -51.5 21.5t-21.5 51.5t21.5 51t51.5 21t51.5 -21t21.5 -51t-21.5 -51.5t-51.5 -21.5zM537 726q-30 0 -51.5 21.5t-21.5 51.5t21.5 51t51.5 21t51.5 -21t21.5 -51t-21.5 -51.5t-51.5 -21.5zM424 -10q-155 0 -264.5 95.5t-109.5 230.5t110 231t264 96
q155 0 265 -96t110 -231t-110 -230.5t-265 -95.5zM424 98q110 0 188.5 64t78.5 154q0 91 -78.5 155t-188.5 64t-188 -64t-78 -155q0 -90 78 -154t188 -64z" />
    <glyph glyph-name="Oslash" unicode="&#xd8;" 
d="M669 563q61 -46 95.5 -110t34.5 -137q0 -135 -110 -230.5t-265 -95.5q-80 0 -148 27l-58 -81h-117l90 125q-66 46 -103.5 112.5t-37.5 142.5q0 135 110 231t264 96q86 0 161 -32l46 64h118zM158 316q0 -102 96 -167l266 371q-45 15 -96 15q-110 0 -188 -64t-78 -155z
M424 98q110 0 188.5 64t78.5 154q0 95 -85 160l-264 -367q41 -11 82 -11z" />
    <glyph glyph-name="Ugrave" unicode="&#xd9;" horiz-adv-x="735" 
d="M239 895h136l122 -174h-105zM367 -10q-131 0 -224 75t-93 181v383h108v-383q0 -60 62 -104t147 -44t147.5 44t62.5 104v383h108v-383q0 -106 -93 -181t-225 -75z" />
    <glyph glyph-name="Uacute" unicode="&#xda;" horiz-adv-x="735" 
d="M361 895h136l-153 -174h-105zM367 -10q-131 0 -224 75t-93 181v383h108v-383q0 -60 62 -104t147 -44t147.5 44t62.5 104v383h108v-383q0 -106 -93 -181t-225 -75z" />
    <glyph glyph-name="Ucircumflex" unicode="&#xdb;" horiz-adv-x="735" 
d="M336 888h69l166 -151h-100l-101 67l-105 -67h-101zM367 -10q-131 0 -224 75t-93 181v383h108v-383q0 -60 62 -104t147 -44t147.5 44t62.5 104v383h108v-383q0 -106 -93 -181t-225 -75z" />
    <glyph glyph-name="Udieresis" unicode="&#xdc;" horiz-adv-x="735" 
d="M255 726q-30 0 -51.5 21.5t-21.5 51.5t21.5 51t51.5 21t51.5 -21t21.5 -51t-21.5 -51.5t-51.5 -21.5zM480 726q-30 0 -51.5 21.5t-21.5 51.5t21.5 51t51.5 21t51.5 -21t21.5 -51t-21.5 -51.5t-51.5 -21.5zM367 -10q-131 0 -224 75t-93 181v383h108v-383q0 -60 62 -104
t147 -44t147.5 44t62.5 104v383h108v-383q0 -106 -93 -181t-225 -75z" />
    <glyph glyph-name="Yacute" unicode="&#xdd;" horiz-adv-x="832" 
d="M409 895h136l-153 -174h-105zM364 294l-314 335h148l219 -234l218 234h147l-310 -335v-294h-108v294z" />
    <glyph glyph-name="Thorn" unicode="&#xde;" horiz-adv-x="663" 
d="M50 629h108v-118h232q92 0 157.5 -54t65.5 -130t-65.5 -129.5t-157.5 -53.5h-232v-144h-108v629zM390 252q47 0 81 22t34 53t-34 53.5t-81 22.5h-232v-151h232z" />
    <glyph glyph-name="agrave" unicode="&#xe0;" horiz-adv-x="835" 
d="M289 895h136l122 -174h-105zM356 629h123l306 -629h-120l-71 146h-353l-71 -146h-120zM541 254l-124 255l-123 -255h247z" />
    <glyph glyph-name="aacute" unicode="&#xe1;" horiz-adv-x="835" 
d="M411 895h136l-153 -174h-105zM356 629h123l306 -629h-120l-71 146h-353l-71 -146h-120zM541 254l-124 255l-123 -255h247z" />
    <glyph glyph-name="acircumflex" unicode="&#xe2;" horiz-adv-x="835" 
d="M386 888h69l166 -151h-100l-101 67l-105 -67h-101zM356 629h123l306 -629h-120l-71 146h-353l-71 -146h-120zM541 254l-124 255l-123 -255h247z" />
    <glyph glyph-name="atilde" unicode="&#xe3;" horiz-adv-x="835" 
d="M464 746q-32 0 -71 29q-20 16 -36 8q-7 -4 -7.5 -9.5t3.5 -22.5h-76q-7 31 5.5 58t39.5 42q57 29 117 -15q19 -14 25 -14q13 0 15 2.5t7 24.5h74q3 -42 -25.5 -72.5t-70.5 -30.5zM356 629h123l306 -629h-120l-71 146h-353l-71 -146h-120zM541 254l-124 255l-123 -255h247
z" />
    <glyph glyph-name="adieresis" unicode="&#xe4;" horiz-adv-x="835" 
d="M305 726q-30 0 -51.5 21.5t-21.5 51.5t21.5 51t51.5 21t51.5 -21t21.5 -51t-21.5 -51.5t-51.5 -21.5zM530 726q-30 0 -51.5 21.5t-21.5 51.5t21.5 51t51.5 21t51.5 -21t21.5 -51t-21.5 -51.5t-51.5 -21.5zM356 629h123l306 -629h-120l-71 146h-353l-71 -146h-120z
M541 254l-124 255l-123 -255h247z" />
    <glyph glyph-name="aring" unicode="&#xe5;" horiz-adv-x="835" 
d="M785 0h-120l-71 146h-353l-71 -146h-120l306 628q-57 39 -57 108q0 52 34.5 89.5t83.5 37.5q50 0 84.5 -37t34.5 -90q0 -72 -56 -108zM417 791q-19 0 -32.5 -16.5t-13.5 -38.5t13.5 -38.5t32.5 -16.5t33 16t14 39q0 24 -13.5 39.5t-33.5 15.5zM541 254l-124 255
l-123 -255h247z" />
    <glyph glyph-name="ae" unicode="&#xe6;" horiz-adv-x="1166" 
d="M548 629h568v-108h-460v-151h436v-108h-436v-154h460v-108h-568v146h-263l-115 -146h-120zM548 254v224l-176 -224h176z" />
    <glyph glyph-name="ccedilla" unicode="&#xe7;" horiz-adv-x="775" 
d="M416 98q68 0 127 28t94 78l88 -63q-48 -67 -125 -106.5t-166 -44.5l-27 -67q23 3 49 -10q33 -16 44.5 -58t-3.5 -80q-28 -69 -117 -69q-50 0 -111 23l23 66q56 -21 93.5 -19t47.5 26q6 12 3.5 27.5t-12.5 21.5q-8 5 -15.5 6t-15.5 -2.5t-13.5 -7t-15 -10.5t-16.5 -11
l-45 28l57 140q-132 18 -221 109t-89 212q0 134 107.5 229.5t258.5 95.5q95 0 177 -40.5t132 -111.5l-88 -62q-35 50 -94 78t-127 28q-106 0 -181.5 -64t-75.5 -153q0 -90 75 -153.5t182 -63.5z" />
    <glyph glyph-name="egrave" unicode="&#xe8;" horiz-adv-x="668" 
d="M205 895h136l122 -174h-105zM50 629h568v-108h-460v-151h436v-108h-436v-154h460v-108h-568v629z" />
    <glyph glyph-name="eacute" unicode="&#xe9;" horiz-adv-x="668" 
d="M327 895h136l-153 -174h-105zM50 629h568v-108h-460v-151h436v-108h-436v-154h460v-108h-568v629z" />
    <glyph glyph-name="ecircumflex" unicode="&#xea;" horiz-adv-x="668" 
d="M303 888h69l166 -151h-100l-101 67l-105 -67h-101zM50 629h568v-108h-460v-151h436v-108h-436v-154h460v-108h-568v629z" />
    <glyph glyph-name="edieresis" unicode="&#xeb;" horiz-adv-x="668" 
d="M222 726q-30 0 -51.5 21.5t-21.5 51.5t21.5 51t51.5 21t51.5 -21t21.5 -51t-21.5 -51.5t-51.5 -21.5zM447 726q-30 0 -51.5 21.5t-21.5 51.5t21.5 51t51.5 21t51.5 -21t21.5 -51t-21.5 -51.5t-51.5 -21.5zM50 629h568v-108h-460v-151h436v-108h-436v-154h460v-108h-568
v629z" />
    <glyph glyph-name="igrave" unicode="&#xec;" horiz-adv-x="220" 
d="M115 721l-153 174h136l122 -174h-105zM50 0v629h108v-629h-108z" />
    <glyph glyph-name="iacute" unicode="&#xed;" horiz-adv-x="220" 
d="M84 895h136l-153 -174h-105zM50 629h108v-629h-108v629z" />
    <glyph glyph-name="icircumflex" unicode="&#xee;" horiz-adv-x="203" 
d="M70 888h69l166 -151h-100l-101 67l-105 -67h-101zM50 629h108v-629h-108v629z" />
    <glyph glyph-name="idieresis" unicode="&#xef;" horiz-adv-x="213" 
d="M-6 726q-30 0 -51.5 21.5t-21.5 51.5t21.5 51t51.5 21t51.5 -21t21.5 -51t-21.5 -51.5t-51.5 -21.5zM219 726q-30 0 -51.5 21.5t-21.5 51.5t21.5 51t51.5 21t51.5 -21t21.5 -51t-21.5 -51.5t-51.5 -21.5zM50 629h108v-629h-108v629z" />
    <glyph glyph-name="eth" unicode="&#xf0;" horiz-adv-x="745" 
d="M331 629q160 0 262 -90.5t102 -223.5q0 -132 -102 -223.5t-262 -91.5h-281v287h-177v72h177v270h281zM331 108q116 0 186 59.5t70 147.5t-70 147t-186 59h-173v-162h188v-72h-188v-179h173z" />
    <glyph glyph-name="ntilde" unicode="&#xf1;" horiz-adv-x="730" 
d="M411 746q-32 0 -71 29q-20 16 -36 8q-7 -4 -7.5 -9.5t3.5 -22.5h-76q-7 31 5.5 58t39.5 42q57 29 117 -15q19 -14 25 -14q13 0 15 2.5t7 24.5h74q3 -42 -25.5 -72.5t-70.5 -30.5zM50 629h104l418 -465v465h108v-629h-105l-417 464v-464h-108v629z" />
    <glyph glyph-name="ograve" unicode="&#xf2;" 
d="M296 895h136l122 -174h-105zM424 -10q-155 0 -264.5 95.5t-109.5 230.5t110 231t264 96q155 0 265 -96t110 -231t-110 -230.5t-265 -95.5zM424 98q110 0 188.5 64t78.5 154q0 91 -78.5 155t-188.5 64t-188 -64t-78 -155q0 -90 78 -154t188 -64z" />
    <glyph glyph-name="oacute" unicode="&#xf3;" 
d="M418 895h136l-153 -174h-105zM424 -10q-155 0 -264.5 95.5t-109.5 230.5t110 231t264 96q155 0 265 -96t110 -231t-110 -230.5t-265 -95.5zM424 98q110 0 188.5 64t78.5 154q0 91 -78.5 155t-188.5 64t-188 -64t-78 -155q0 -90 78 -154t188 -64z" />
    <glyph glyph-name="ocircumflex" unicode="&#xf4;" 
d="M393 888h69l166 -151h-100l-101 67l-105 -67h-101zM424 -10q-155 0 -264.5 95.5t-109.5 230.5t110 231t264 96q155 0 265 -96t110 -231t-110 -230.5t-265 -95.5zM424 98q110 0 188.5 64t78.5 154q0 91 -78.5 155t-188.5 64t-188 -64t-78 -155q0 -90 78 -154t188 -64z" />
    <glyph glyph-name="otilde" unicode="&#xf5;" 
d="M471 746q-32 0 -71 29q-20 16 -36 8q-7 -4 -7.5 -9.5t3.5 -22.5h-76q-7 31 5.5 58t39.5 42q57 29 117 -15q19 -14 25 -14q13 0 15 2.5t7 24.5h74q3 -42 -25.5 -72.5t-70.5 -30.5zM424 -10q-155 0 -264.5 95.5t-109.5 230.5t110 231t264 96q155 0 265 -96t110 -231
t-110 -230.5t-265 -95.5zM424 98q110 0 188.5 64t78.5 154q0 91 -78.5 155t-188.5 64t-188 -64t-78 -155q0 -90 78 -154t188 -64z" />
    <glyph glyph-name="odieresis" unicode="&#xf6;" 
d="M312 726q-30 0 -51.5 21.5t-21.5 51.5t21.5 51t51.5 21t51.5 -21t21.5 -51t-21.5 -51.5t-51.5 -21.5zM537 726q-30 0 -51.5 21.5t-21.5 51.5t21.5 51t51.5 21t51.5 -21t21.5 -51t-21.5 -51.5t-51.5 -21.5zM424 -10q-155 0 -264.5 95.5t-109.5 230.5t110 231t264 96
q155 0 265 -96t110 -231t-110 -230.5t-265 -95.5zM424 98q110 0 188.5 64t78.5 154q0 91 -78.5 155t-188.5 64t-188 -64t-78 -155q0 -90 78 -154t188 -64z" />
    <glyph glyph-name="oslash" unicode="&#xf8;" 
d="M669 563q61 -46 95.5 -110t34.5 -137q0 -135 -110 -230.5t-265 -95.5q-80 0 -148 27l-58 -81h-117l90 125q-66 46 -103.5 112.5t-37.5 142.5q0 135 110 231t264 96q86 0 161 -32l46 64h118zM158 316q0 -102 96 -167l266 371q-45 15 -96 15q-110 0 -188 -64t-78 -155z
M424 98q110 0 188.5 64t78.5 154q0 95 -85 160l-264 -367q41 -11 82 -11z" />
    <glyph glyph-name="ugrave" unicode="&#xf9;" horiz-adv-x="735" 
d="M239 895h136l122 -174h-105zM367 -10q-131 0 -224 75t-93 181v383h108v-383q0 -60 62 -104t147 -44t147.5 44t62.5 104v383h108v-383q0 -106 -93 -181t-225 -75z" />
    <glyph glyph-name="uacute" unicode="&#xfa;" horiz-adv-x="735" 
d="M361 895h136l-153 -174h-105zM367 -10q-131 0 -224 75t-93 181v383h108v-383q0 -60 62 -104t147 -44t147.5 44t62.5 104v383h108v-383q0 -106 -93 -181t-225 -75z" />
    <glyph glyph-name="ucircumflex" unicode="&#xfb;" horiz-adv-x="735" 
d="M336 888h69l166 -151h-100l-101 67l-105 -67h-101zM367 -10q-131 0 -224 75t-93 181v383h108v-383q0 -60 62 -104t147 -44t147.5 44t62.5 104v383h108v-383q0 -106 -93 -181t-225 -75z" />
    <glyph glyph-name="udieresis" unicode="&#xfc;" horiz-adv-x="735" 
d="M255 726q-30 0 -51.5 21.5t-21.5 51.5t21.5 51t51.5 21t51.5 -21t21.5 -51t-21.5 -51.5t-51.5 -21.5zM480 726q-30 0 -51.5 21.5t-21.5 51.5t21.5 51t51.5 21t51.5 -21t21.5 -51t-21.5 -51.5t-51.5 -21.5zM367 -10q-131 0 -224 75t-93 181v383h108v-383q0 -60 62 -104
t147 -44t147.5 44t62.5 104v383h108v-383q0 -106 -93 -181t-225 -75z" />
    <glyph glyph-name="yacute" unicode="&#xfd;" horiz-adv-x="832" 
d="M409 895h136l-153 -174h-105zM364 294l-314 335h148l219 -234l218 234h147l-310 -335v-294h-108v294z" />
    <glyph glyph-name="thorn" unicode="&#xfe;" horiz-adv-x="663" 
d="M50 629h108v-118h232q92 0 157.5 -54t65.5 -130t-65.5 -129.5t-157.5 -53.5h-232v-144h-108v629zM390 252q47 0 81 22t34 53t-34 53.5t-81 22.5h-232v-151h232z" />
    <glyph glyph-name="ydieresis" unicode="&#xff;" horiz-adv-x="832" 
d="M304 726q-30 0 -51.5 21.5t-21.5 51.5t21.5 51t51.5 21t51.5 -21t21.5 -51t-21.5 -51.5t-51.5 -21.5zM529 726q-30 0 -51.5 21.5t-21.5 51.5t21.5 51t51.5 21t51.5 -21t21.5 -51t-21.5 -51.5t-51.5 -21.5zM364 294l-314 335h148l219 -234l218 234h147l-310 -335v-294
h-108v294z" />
    <glyph glyph-name="dotlessi" unicode="&#x131;" horiz-adv-x="208" 
d="M50 629h108v-629h-108v629z" />
    <glyph glyph-name="OE" unicode="&#x152;" horiz-adv-x="1309" 
d="M424 -10q-155 0 -264.5 95.5t-109.5 230.5t110 231t264 96q158 0 267 -98v84h568v-108h-460v-151h436v-108h-436v-154h460v-108h-568v87q-110 -97 -267 -97zM424 98q110 0 188.5 64t78.5 154q0 91 -78.5 155t-188.5 64t-188 -64t-78 -155q0 -90 78 -154t188 -64z" />
    <glyph glyph-name="oe" unicode="&#x153;" horiz-adv-x="1309" 
d="M424 -10q-155 0 -264.5 95.5t-109.5 230.5t110 231t264 96q158 0 267 -98v84h568v-108h-460v-151h436v-108h-436v-154h460v-108h-568v87q-110 -97 -267 -97zM424 98q110 0 188.5 64t78.5 154q0 91 -78.5 155t-188.5 64t-188 -64t-78 -155q0 -90 78 -154t188 -64z" />
    <glyph glyph-name="Wcircumflex" unicode="&#x174;" horiz-adv-x="1129" 
d="M533 888h69l166 -151h-100l-101 67l-105 -67h-101zM280 1l-230 628h115l168 -457l180 457h103l180 -457l168 457h115l-231 -628l-2 -1h-99l-183 465l-183 -465h-99z" />
    <glyph glyph-name="wcircumflex" unicode="&#x175;" horiz-adv-x="1129" 
d="M533 888h69l166 -151h-100l-101 67l-105 -67h-101zM280 1l-230 628h115l168 -457l180 457h103l180 -457l168 457h115l-231 -628l-2 -1h-99l-183 465l-183 -465h-99z" />
    <glyph glyph-name="Ycircumflex" unicode="&#x176;" horiz-adv-x="832" 
d="M385 888h69l166 -151h-100l-101 67l-105 -67h-101zM364 294l-314 335h148l219 -234l218 234h147l-310 -335v-294h-108v294z" />
    <glyph glyph-name="ycircumflex" unicode="&#x177;" horiz-adv-x="832" 
d="M385 888h69l166 -151h-100l-101 67l-105 -67h-101zM364 294l-314 335h148l219 -234l218 234h147l-310 -335v-294h-108v294z" />
    <glyph glyph-name="Ydieresis" unicode="&#x178;" horiz-adv-x="832" 
d="M304 726q-30 0 -51.5 21.5t-21.5 51.5t21.5 51t51.5 21t51.5 -21t21.5 -51t-21.5 -51.5t-51.5 -21.5zM529 726q-30 0 -51.5 21.5t-21.5 51.5t21.5 51t51.5 21t51.5 -21t21.5 -51t-21.5 -51.5t-51.5 -21.5zM364 294l-314 335h148l219 -234l218 234h147l-310 -335v-294
h-108v294z" />
    <glyph glyph-name="circumflex" unicode="&#x2c6;" horiz-adv-x="507" 
d="M222 888h69l166 -151h-100l-101 67l-105 -67h-101z" />
    <glyph glyph-name="caron" unicode="&#x2c7;" horiz-adv-x="507" 
d="M50 888h101l105 -67l101 67h100l-166 -151h-69z" />
    <glyph glyph-name="breve" unicode="&#x2d8;" horiz-adv-x="391" 
d="M196 713q-65 0 -108.5 44.5t-36.5 104.5h75q-7 -29 14 -51.5t56 -22.5q34 0 55 22.5t14 51.5h75q7 -60 -36.5 -104.5t-107.5 -44.5z" />
    <glyph glyph-name="dotaccent" unicode="&#x2d9;" horiz-adv-x="246" 
d="M123 726q-30 0 -51.5 21.5t-21.5 51.5t21.5 51t51.5 21t51.5 -21t21.5 -51t-21.5 -51.5t-51.5 -21.5z" />
    <glyph glyph-name="ring" unicode="&#x2da;" horiz-adv-x="337" 
d="M168 629q-48 0 -83 37.5t-35 89.5t34.5 89.5t83.5 37.5q50 0 84.5 -37t34.5 -90t-34.5 -90t-84.5 -37zM168 701q19 0 33 16t14 39q0 24 -13.5 39.5t-33.5 15.5q-19 0 -32.5 -16.5t-13.5 -38.5t13.5 -38.5t32.5 -16.5z" />
    <glyph glyph-name="ogonek" unicode="&#x2db;" horiz-adv-x="358" 
d="M203 0h105l-122 -174h-136z" />
    <glyph glyph-name="tilde" unicode="&#x2dc;" horiz-adv-x="385" 
d="M239 746q-32 0 -71 29q-20 16 -36 8q-7 -4 -7.5 -9.5t3.5 -22.5h-76q-7 31 5.5 58t39.5 42q57 29 117 -15q19 -14 25 -14q13 0 15 2.5t7 24.5h74q3 -42 -25.5 -72.5t-70.5 -30.5z" />
    <glyph glyph-name="hungarumlaut" unicode="&#x2dd;" horiz-adv-x="541" 
d="M172 895h136l-153 -174h-105zM355 895h136l-153 -174h-105z" />
    <glyph glyph-name="gravecomb" unicode="&#x300;" horiz-adv-x="0" 
d="M-308 895h136l122 -174h-105z" />
    <glyph glyph-name="acutecomb" unicode="&#x301;" horiz-adv-x="0" 
d="M-186 895h136l-153 -174h-105z" />
    <glyph glyph-name="uni0302" unicode="&#x302;" horiz-adv-x="0" 
d="M-285 888h69l166 -151h-100l-101 67l-105 -67h-101z" />
    <glyph glyph-name="tildecomb" unicode="&#x303;" horiz-adv-x="0" 
d="M-146 746q-32 0 -71 29q-20 16 -36 8q-7 -4 -7.5 -9.5t3.5 -22.5h-76q-7 31 5.5 58t39.5 42q57 29 117 -15q19 -14 25 -14q13 0 15 2.5t7 24.5h74q3 -42 -25.5 -72.5t-70.5 -30.5z" />
    <glyph glyph-name="uni0307" unicode="&#x307;" horiz-adv-x="0" 
d="M-123 726q-30 0 -51.5 21.5t-21.5 51.5t21.5 51t51.5 21t51.5 -21t21.5 -51t-21.5 -51.5t-51.5 -21.5z" />
    <glyph glyph-name="uni0308" unicode="&#x308;" horiz-adv-x="0" 
d="M-348 726q-30 0 -51.5 21.5t-21.5 51.5t21.5 51t51.5 21t51.5 -21t21.5 -51t-21.5 -51.5t-51.5 -21.5zM-123 726q-30 0 -51.5 21.5t-21.5 51.5t21.5 51t51.5 21t51.5 -21t21.5 -51t-21.5 -51.5t-51.5 -21.5z" />
    <glyph glyph-name="uni030A" unicode="&#x30a;" horiz-adv-x="0" 
d="M-169 629q-48 0 -83 37.5t-35 89.5t34.5 89.5t83.5 37.5q50 0 84.5 -37t34.5 -90t-34.5 -90t-84.5 -37zM-169 701q19 0 33 16t14 39q0 24 -13.5 39.5t-33.5 15.5q-19 0 -32.5 -16.5t-13.5 -38.5t13.5 -38.5t32.5 -16.5z" />
    <glyph glyph-name="uni0327" unicode="&#x327;" horiz-adv-x="0" 
d="M-175 -294q-50 0 -111 23l23 66q56 -21 93.5 -19t47.5 26q6 12 3.5 27.5t-12.5 21.5q-8 5 -15.5 6t-15.5 -2.5t-13.5 -7t-15 -10.5t-16.5 -11l-45 28l60 146h75l-31 -77q23 3 49 -10q33 -16 44.5 -58t-3.5 -80q-28 -69 -117 -69z" />
    <glyph glyph-name="uni0335" unicode="&#x335;" horiz-adv-x="0" 
d="M-523 359h473v-72h-473v72z" />
    <glyph glyph-name="uni0338" unicode="&#x338;" horiz-adv-x="0" 
d="M-168 675h118l-531 -739h-117z" />
    <glyph glyph-name="Wgrave" unicode="&#x1e80;" horiz-adv-x="1129" 
d="M436 895h136l122 -174h-105zM280 1l-230 628h115l168 -457l180 457h103l180 -457l168 457h115l-231 -628l-2 -1h-99l-183 465l-183 -465h-99z" />
    <glyph glyph-name="wgrave" unicode="&#x1e81;" horiz-adv-x="1129" 
d="M436 895h136l122 -174h-105zM280 1l-230 628h115l168 -457l180 457h103l180 -457l168 457h115l-231 -628l-2 -1h-99l-183 465l-183 -465h-99z" />
    <glyph glyph-name="Wacute" unicode="&#x1e82;" horiz-adv-x="1129" 
d="M558 895h136l-153 -174h-105zM280 1l-230 628h115l168 -457l180 457h103l180 -457l168 457h115l-231 -628l-2 -1h-99l-183 465l-183 -465h-99z" />
    <glyph glyph-name="wacute" unicode="&#x1e83;" horiz-adv-x="1129" 
d="M558 895h136l-153 -174h-105zM280 1l-230 628h115l168 -457l180 457h103l180 -457l168 457h115l-231 -628l-2 -1h-99l-183 465l-183 -465h-99z" />
    <glyph glyph-name="Wdieresis" unicode="&#x1e84;" horiz-adv-x="1129" 
d="M452 726q-30 0 -51.5 21.5t-21.5 51.5t21.5 51t51.5 21t51.5 -21t21.5 -51t-21.5 -51.5t-51.5 -21.5zM677 726q-30 0 -51.5 21.5t-21.5 51.5t21.5 51t51.5 21t51.5 -21t21.5 -51t-21.5 -51.5t-51.5 -21.5zM280 1l-230 628h115l168 -457l180 457h103l180 -457l168 457h115
l-231 -628l-2 -1h-99l-183 465l-183 -465h-99z" />
    <glyph glyph-name="wdieresis" unicode="&#x1e85;" horiz-adv-x="1129" 
d="M452 726q-30 0 -51.5 21.5t-21.5 51.5t21.5 51t51.5 21t51.5 -21t21.5 -51t-21.5 -51.5t-51.5 -21.5zM677 726q-30 0 -51.5 21.5t-21.5 51.5t21.5 51t51.5 21t51.5 -21t21.5 -51t-21.5 -51.5t-51.5 -21.5zM280 1l-230 628h115l168 -457l180 457h103l180 -457l168 457h115
l-231 -628l-2 -1h-99l-183 465l-183 -465h-99z" />
    <glyph glyph-name="Ygrave" unicode="&#x1ef2;" horiz-adv-x="832" 
d="M287 895h136l122 -174h-105zM364 294l-314 335h148l219 -234l218 234h147l-310 -335v-294h-108v294z" />
    <glyph glyph-name="ygrave" unicode="&#x1ef3;" horiz-adv-x="832" 
d="M287 895h136l122 -174h-105zM364 294l-314 335h148l219 -234l218 234h147l-310 -335v-294h-108v294z" />
    <glyph glyph-name="endash" unicode="&#x2013;" horiz-adv-x="620" 
d="M50 342h520v-96h-520v96z" />
    <glyph glyph-name="emdash" unicode="&#x2014;" horiz-adv-x="1020" 
d="M50 342h920v-96h-920v96z" />
    <glyph glyph-name="quoteleft" unicode="&#x2018;" horiz-adv-x="217" 
d="M109 456q-34 0 -49.5 24.5t-8 58t33.5 58.5q34 32 76 32v-36q-30 0 -51 -22q23 0 40 -17t17 -40q0 -24 -17 -41t-41 -17z" />
    <glyph glyph-name="quoteright" unicode="&#x2019;" horiz-adv-x="217" 
d="M56 492q30 0 51 22q-23 0 -40 17t-17 40q0 24 17 41t41 17q34 0 49.5 -24.5t8 -58t-33.5 -58.5q-34 -32 -76 -32v36z" />
    <glyph glyph-name="quotedblleft" unicode="&#x201c;" horiz-adv-x="347" 
d="M109 456q-34 0 -49.5 24.5t-8 58t33.5 58.5q34 32 76 32v-36q-30 0 -51 -22q23 0 40 -17t17 -40q0 -24 -17 -41t-41 -17zM239 456q-34 0 -49.5 24.5t-8 58t33.5 58.5q34 32 76 32v-36q-30 0 -51 -22q23 0 40 -17t17 -40q0 -24 -17 -41t-41 -17z" />
    <glyph glyph-name="quotedblright" unicode="&#x201d;" horiz-adv-x="347" 
d="M56 492q30 0 51 22q-23 0 -40 17t-17 40q0 24 17 41t41 17q34 0 49.5 -24.5t8 -58t-33.5 -58.5q-34 -32 -76 -32v36zM186 492q30 0 51 22q-23 0 -40 17t-17 40q0 24 17 41t41 17q34 0 49.5 -24.5t8 -58t-33.5 -58.5q-34 -32 -76 -32v36z" />
    <glyph glyph-name="bullet" unicode="&#x2022;" horiz-adv-x="331" 
d="M167 163q-48 0 -82 34t-34 82q0 47 34 80.5t82 33.5q47 0 80.5 -33.5t33.5 -80.5q0 -48 -33.5 -82t-80.5 -34z" />
    <glyph glyph-name="ellipsis" unicode="&#x2026;" horiz-adv-x="615" 
d="M108 -10q-24 0 -41 17t-17 41q0 23 17 40t41 17q23 0 40 -17t17 -40q0 -24 -17 -41t-40 -17zM308 -10q-24 0 -41 17t-17 41q0 23 17 40t41 17q23 0 40 -17t17 -40q0 -24 -17 -41t-40 -17zM508 -10q-24 0 -41 17t-17 41q0 23 17 40t41 17q23 0 40 -17t17 -40
q0 -24 -17 -41t-40 -17z" />
    <glyph glyph-name="guilsinglleft" unicode="&#x2039;" horiz-adv-x="543" 
d="M50 221v78l443 222v-106l-309 -155l309 -154v-107z" />
    <glyph glyph-name="guilsinglright" unicode="&#x203a;" horiz-adv-x="543" 
d="M50 106l309 154l-309 155v106l443 -222v-78l-443 -222v107z" />
    <glyph glyph-name="fraction" unicode="&#x2044;" horiz-adv-x="461" 
d="M307 629h104l-257 -629h-104z" />
    <glyph glyph-name="Euro" unicode="&#x20ac;" horiz-adv-x="626" 
d="M402 -10q-95 0 -173 56t-111 146h-68v96h47v54h-47v96h65q33 93 111 151.5t176 58.5q93 0 171 -55l-56 -78q-52 37 -115 37q-58 0 -106.5 -31t-75.5 -83h297v-96h-324v-54h324v-96h-293q28 -48 75.5 -77t102.5 -29q63 0 118 39l56 -78q-79 -57 -174 -57z" />
    <glyph glyph-name="trademark" unicode="&#x2122;" horiz-adv-x="1574" 
d="M306 521h-256v108h621v-108h-257v-521h-108v521zM761 629h102l280 -466l279 466h102v-629h-108v410l-245 -410h-56l-246 410v-410h-108v629z" />
    <glyph glyph-name="minus" unicode="&#x2212;" horiz-adv-x="600" 
d="M50 342h520v-96h-520v96z" />
    <glyph glyph-name="uni25FC" unicode="&#x25fc;" horiz-adv-x="630" 
d="M0 630h630v-630h-630v630z" />
    </font>
</defs>
</svg>
